<svg width="75" height="75" viewBox="0 0 75 75" fill="none" xmlns="http://www.w3.org/2000/svg">
<g clip-path="url(#clip0_139_45)">
<path d="M75 0H0V75H75V1Z" fill="#B0E0E6" fill-opacity="0.33"/>
<path d="M75 0H0V75H75V1Z" fill="#6A5ACD" fill-opacity="0.2"/>
<path d="M75 0H0V75H75V1Z" fill="#2E8B57" fill-opacity="0.2"/>
<path d="M41.6667 4.31641C41.3818 13.1381 58.3182 38.8331 43.3284 56.0634C41.8318 53.8179 12.8667 56.4204 40.5955 20.4179C41.0641 20.5659 40.9133 54.5568 31.0682 54.1908C33.181 54.4142 33.9132 18.5418 33.8642 53.4523C20.5688 31.5916 42.9085 33.5591 43.1809 12.8828" stroke="#D4D4D4" stroke-width="5.81078" stroke-linecap="round"/>
<path d="M58.1787 11.8086C33.5603 57.8505 24.8497 68.7 74.6992 44.97" stroke="#E9C7C7" stroke-width="7.49243" stroke-linecap="round"/>
<path d="M8.67074 11.3257C7.95449 49.5498 49.6245 53.6608 58.1827 43.091" stroke="#E6C5C4" stroke-width="5.84078" stroke-linecap="round"/>
<path d="M33.4286 11.5835C33.5604 57.883 57.8828 53.6605 58.1828 43.0908" stroke="#E4C4C4" stroke-width="5.84078" stroke-linecap="round"/>
<path d="M43.1841 36.6331C42.8906 58.4137 40.8335 31.085 40.8631 36.3335C63.6646 40.9842 63.5143 42.5842 65.7643 43.3927" stroke="#D5D5D5" stroke-width="5.84078" stroke-linecap="round"/>
<path d="M58.2868 6.43421C53.6441 6.39395 64.3612 16.1414 64.1911 16.6149C40.1363 25.3585 62.6501 23.6889 62.8791 28.9188C28.75 41.3519 64.0166 38.5137 61.1351 43.7892C44.14 62.3892 43.9416 66.385 64.3639 25.0392C25.3738 85.0148 62.5015 26.665 62.8912 25.0134" stroke="#DED5D5" stroke-width="7.49243" stroke-linecap="round"/>
<path d="M35.3693 56.8049C39.0873 56.8049 42.7506 55.9029 46.3232 54.9384C51.8263 53.4528 57.6587 51.1118 61.3925 46.6312C63.51 44.0903 65.8046 41.5154 68.1393 39.1807" stroke="#E4C4C4" stroke-width="3" stroke-linecap="round"/>
<!-- rose stem -->
<path d="M35.92 54.8774C33.1902 55.7874 30.5353 57.6616 28.0258 58.9775C19.0501 63.6841 9.90403 68.0504 0.778618 72.4558C-6.55581 75.9965 -13.8749 79.4833 -21.3588 82.6907" stroke="#E4C4C4" stroke-width="3" stroke-linecap="square"/>
</g>
<defs>
<clipPath id="clip0_139_45">
<rect width="75" height="75" fill="greenyellow"/>
</clipPath>
</defs>
</svg>
