<svg width="289" height="341" viewBox="0 0 289 341" fill="none" xmlns="http://www.w3.org/2000/svg">
<path d="M52.1145 1.40622V58H39.2925L18.8436 28.2662H18.512V58H3.14765V1.40622H16.1907L36.3081 31.0295H36.7502V1.40622H52.1145ZM114.207 29.7031C114.207 36.0036 112.982 41.3185 110.532 45.6477C108.082 49.9586 104.775 53.2286 100.612 55.4577C96.4482 57.6684 91.8057 58.7737 86.6843 58.7737C81.526 58.7737 76.8651 57.6592 72.7016 55.4301C68.5566 53.1825 65.259 49.9033 62.8088 45.5925C60.377 41.2632 59.1611 35.9667 59.1611 29.7031C59.1611 23.4026 60.377 18.097 62.8088 13.7861C65.259 9.45683 68.5566 6.18684 72.7016 3.97615C76.8651 1.74703 81.526 0.632471 86.6843 0.632471C91.8057 0.632471 96.4482 1.74703 100.612 3.97615C104.775 6.18684 108.082 9.45683 110.532 13.7861C112.982 18.097 114.207 23.4026 114.207 29.7031ZM98.401 29.7031C98.401 26.3134 97.9496 23.4579 97.0469 21.1367C96.1626 18.797 94.8454 17.0285 93.0953 15.831C91.3636 14.6151 89.2266 14.0072 86.6843 14.0072C84.142 14.0072 81.9958 14.6151 80.2456 15.831C78.5139 17.0285 77.1967 18.797 76.294 21.1367C75.4097 23.4579 74.9676 26.3134 74.9676 29.7031C74.9676 33.0928 75.4097 35.9575 76.294 38.2972C77.1967 40.6184 78.5139 42.387 80.2456 43.6029C81.9958 44.8003 84.142 45.399 86.6843 45.399C89.2266 45.399 91.3636 44.8003 93.0953 43.6029C94.8454 42.387 96.1626 40.6184 97.0469 38.2972C97.9496 35.9575 98.401 33.0928 98.401 29.7031ZM57.9729 123.703C57.9729 130.004 56.7478 135.318 54.2976 139.648C51.8474 143.959 48.5406 147.229 44.3771 149.458C40.2136 151.668 35.5712 152.774 30.4497 152.774C25.2914 152.774 20.6306 151.659 16.4671 149.43C12.322 147.183 9.02441 143.903 6.57422 139.592C4.14246 135.263 2.92658 129.967 2.92658 123.703C2.92658 117.403 4.14246 112.097 6.57422 107.786C9.02441 103.457 12.322 100.187 16.4671 97.9761C20.6306 95.747 25.2914 94.6325 30.4497 94.6325C35.5712 94.6325 40.2136 95.747 44.3771 97.9761C48.5406 100.187 51.8474 103.457 54.2976 107.786C56.7478 112.097 57.9729 117.403 57.9729 123.703ZM42.1664 123.703C42.1664 120.313 41.7151 117.458 40.8124 115.137C39.9281 112.797 38.6109 111.028 36.8607 109.831C35.129 108.615 32.992 108.007 30.4497 108.007C27.9074 108.007 25.7612 108.615 24.0111 109.831C22.2794 111.028 20.9622 112.797 20.0595 115.137C19.1752 117.458 18.733 120.313 18.733 123.703C18.733 127.093 19.1752 129.958 20.0595 132.297C20.9622 134.618 22.2794 136.387 24.0111 137.603C25.7612 138.8 27.9074 139.399 30.4497 139.399C32.992 139.399 35.129 138.8 36.8607 137.603C38.6109 136.387 39.9281 134.618 40.8124 132.297C41.7151 129.958 42.1664 127.093 42.1664 123.703ZM114.049 95.4062V152H101.226L80.7776 122.266H80.446V152H65.0816V95.4062H78.1247L98.2421 125.03H98.6842V95.4062H114.049ZM121.316 152V95.4062H162.104V107.786H136.681V117.513H160.003V129.893H136.681V139.62H161.993V152H121.316ZM17.5172 246L0.826417 189.406H17.9593L25.6967 224.225H26.1389L35.3133 189.406H48.7985L57.9729 224.335H58.415L66.1524 189.406H83.2853L66.5946 246H51.8935L42.2769 214.387H41.8348L32.2183 246H17.5172ZM96.3492 246H79.7689L98.4493 189.406H119.451L138.131 246H121.551L109.171 204.992H108.729L96.3492 246ZM93.2542 223.672H124.425V235.168H93.2542V223.672ZM143.582 246V189.406H158.946V233.62H181.827V246H143.582ZM188.038 246V189.406H203.402V212.287H204.176L221.198 189.406H239.105L219.982 214.608L239.547 246H221.198L208.487 224.777L203.402 231.409V246H188.038ZM273.412 207.092C273.265 205.25 272.574 203.813 271.339 202.781C270.124 201.749 268.272 201.233 265.785 201.233C264.201 201.233 262.902 201.427 261.889 201.814C260.894 202.182 260.157 202.689 259.678 203.334C259.199 203.978 258.95 204.715 258.932 205.544C258.895 206.226 259.015 206.843 259.291 207.396C259.586 207.93 260.046 208.418 260.673 208.86C261.299 209.284 262.101 209.671 263.077 210.021C264.053 210.371 265.214 210.684 266.559 210.96L271.201 211.955C274.333 212.619 277.014 213.494 279.243 214.581C281.472 215.667 283.296 216.948 284.714 218.422C286.133 219.877 287.174 221.517 287.837 223.34C288.518 225.164 288.868 227.154 288.887 229.309C288.868 233.031 287.938 236.181 286.096 238.76C284.254 241.339 281.619 243.301 278.193 244.646C274.784 245.991 270.685 246.663 265.896 246.663C260.977 246.663 256.684 245.936 253.018 244.48C249.371 243.025 246.534 240.786 244.507 237.765C242.499 234.725 241.486 230.838 241.467 226.104H256.058C256.15 227.835 256.583 229.291 257.357 230.47C258.131 231.649 259.217 232.542 260.618 233.15C262.036 233.758 263.722 234.062 265.675 234.062C267.314 234.062 268.687 233.86 269.792 233.454C270.897 233.049 271.736 232.487 272.307 231.769C272.878 231.05 273.172 230.23 273.191 229.309C273.172 228.443 272.887 227.688 272.334 227.043C271.8 226.38 270.916 225.791 269.681 225.275C268.447 224.74 266.78 224.243 264.68 223.783L259.042 222.567C254.032 221.48 250.08 219.665 247.188 217.123C244.314 214.562 242.886 211.071 242.904 206.65C242.886 203.057 243.844 199.916 245.778 197.227C247.731 194.518 250.43 192.409 253.875 190.898C257.338 189.388 261.308 188.632 265.785 188.632C270.354 188.632 274.305 189.397 277.64 190.926C280.974 192.455 283.544 194.611 285.35 197.392C287.174 200.156 288.095 203.389 288.113 207.092H273.412ZM17.8488 340H1.26856L19.9489 283.406H40.9505L59.6309 340H43.0507L30.6708 298.992H30.2287L17.8488 340ZM14.7538 317.672H45.9246V329.168H14.7538V317.672ZM65.0816 340V283.406H80.446V327.62H103.327V340H65.0816ZM162.159 311.703C162.159 318.004 160.934 323.318 158.483 327.648C156.033 331.959 152.726 335.229 148.563 337.458C144.4 339.668 139.757 340.774 134.636 340.774C129.477 340.774 124.816 339.659 120.653 337.43C116.508 335.183 113.21 331.903 110.76 327.592C108.328 323.263 107.112 317.967 107.112 311.703C107.112 305.403 108.328 300.097 110.76 295.786C113.21 291.457 116.508 288.187 120.653 285.976C124.816 283.747 129.477 282.632 134.636 282.632C139.757 282.632 144.4 283.747 148.563 285.976C152.726 288.187 156.033 291.457 158.483 295.786C160.934 300.097 162.159 305.403 162.159 311.703ZM146.352 311.703C146.352 308.313 145.901 305.458 144.998 303.137C144.114 300.797 142.797 299.028 141.047 297.831C139.315 296.615 137.178 296.007 134.636 296.007C132.093 296.007 129.947 296.615 128.197 297.831C126.465 299.028 125.148 300.797 124.245 303.137C123.361 305.458 122.919 308.313 122.919 311.703C122.919 315.093 123.361 317.958 124.245 320.297C125.148 322.618 126.465 324.387 128.197 325.603C129.947 326.8 132.093 327.399 134.636 327.399C137.178 327.399 139.315 326.8 141.047 325.603C142.797 324.387 144.114 322.618 144.998 320.297C145.901 317.958 146.352 315.093 146.352 311.703ZM218.234 283.406V340H205.412L184.963 310.266H184.632V340H169.268V283.406H182.311L202.428 313.03H202.87V283.406H218.234ZM225.502 340V283.406H266.289V295.786H240.866V305.513H264.189V317.893H240.866V327.62H266.179V340H225.502Z" fill="black"/>
</svg>
