<svg width="475" height="562" viewBox="0 0 475 562" fill="none" xmlns="http://www.w3.org/2000/svg">
<path d="M84.5455 1.90909V95H63.4545L29.8182 46.0909H29.2727V95H4V1.90909H25.4545L58.5455 50.6364H59.2727V1.90909H84.5455ZM186.682 48.4545C186.682 58.8182 184.667 67.5606 180.636 74.6818C176.606 81.7727 171.167 87.1515 164.318 90.8182C157.47 94.4545 149.833 96.2727 141.409 96.2727C132.924 96.2727 125.258 94.4394 118.409 90.7727C111.591 87.0758 106.167 81.6818 102.136 74.5909C98.1364 67.4697 96.1364 58.7576 96.1364 48.4545C96.1364 38.0909 98.1364 29.3636 102.136 22.2727C106.167 15.1515 111.591 9.77272 118.409 6.13636C125.258 2.46969 132.924 0.63636 141.409 0.63636C149.833 0.63636 157.47 2.46969 164.318 6.13636C171.167 9.77272 176.606 15.1515 180.636 22.2727C184.667 29.3636 186.682 38.0909 186.682 48.4545ZM160.682 48.4545C160.682 42.8788 159.939 38.1818 158.455 34.3636C157 30.5151 154.833 27.6061 151.955 25.6364C149.106 23.6364 145.591 22.6364 141.409 22.6364C137.227 22.6364 133.697 23.6364 130.818 25.6364C127.97 27.6061 125.803 30.5151 124.318 34.3636C122.864 38.1818 122.136 42.8788 122.136 48.4545C122.136 54.0303 122.864 58.7424 124.318 62.5909C125.803 66.4091 127.97 69.3182 130.818 71.3182C133.697 73.2879 137.227 74.2727 141.409 74.2727C145.591 74.2727 149.106 73.2879 151.955 71.3182C154.833 69.3182 157 66.4091 158.455 62.5909C159.939 58.7424 160.682 54.0303 160.682 48.4545ZM94.1818 203.455C94.1818 213.818 92.1667 222.561 88.1364 229.682C84.1061 236.773 78.6667 242.152 71.8182 245.818C64.9697 249.455 57.3333 251.273 48.9091 251.273C40.4242 251.273 32.7576 249.439 25.9091 245.773C19.0909 242.076 13.6667 236.682 9.63636 229.591C5.63636 222.47 3.63636 213.758 3.63636 203.455C3.63636 193.091 5.63636 184.364 9.63636 177.273C13.6667 170.152 19.0909 164.773 25.9091 161.136C32.7576 157.47 40.4242 155.636 48.9091 155.636C57.3333 155.636 64.9697 157.47 71.8182 161.136C78.6667 164.773 84.1061 170.152 88.1364 177.273C92.1667 184.364 94.1818 193.091 94.1818 203.455ZM68.1818 203.455C68.1818 197.879 67.4394 193.182 65.9545 189.364C64.5 185.515 62.3333 182.606 59.4545 180.636C56.6061 178.636 53.0909 177.636 48.9091 177.636C44.7273 177.636 41.197 178.636 38.3182 180.636C35.4697 182.606 33.303 185.515 31.8182 189.364C30.3636 193.182 29.6364 197.879 29.6364 203.455C29.6364 209.03 30.3636 213.742 31.8182 217.591C33.303 221.409 35.4697 224.318 38.3182 226.318C41.197 228.288 44.7273 229.273 48.9091 229.273C53.0909 229.273 56.6061 228.288 59.4545 226.318C62.3333 224.318 64.5 221.409 65.9545 217.591C67.4394 213.742 68.1818 209.03 68.1818 203.455ZM186.42 156.909V250H165.33L131.693 201.091H131.148V250H105.875V156.909H127.33L160.42 205.636H161.148V156.909H186.42ZM198.375 250V156.909H265.466V177.273H223.648V193.273H262.011V213.636H223.648V229.636H265.284V250H198.375ZM27.6364 405L0.181818 311.909H28.3636L41.0909 369.182H41.8182L56.9091 311.909H79.0909L94.1818 369.364H94.9091L107.636 311.909H135.818L108.364 405H84.1818L68.3636 353H67.6364L51.8182 405H27.6364ZM157.307 405H130.034L160.761 311.909H195.307L226.034 405H198.761L178.398 337.545H177.67L157.307 405ZM152.216 368.273H203.489V387.182H152.216V368.273ZM235 405V311.909H260.273V384.636H297.909V405H235ZM308.125 405V311.909H333.398V349.545H334.67L362.67 311.909H392.125L360.67 353.364L392.852 405H362.67L341.761 370.091L333.398 381V405H308.125ZM448.557 341C448.314 337.97 447.178 335.606 445.148 333.909C443.148 332.212 440.102 331.364 436.011 331.364C433.405 331.364 431.269 331.682 429.602 332.318C427.966 332.924 426.754 333.758 425.966 334.818C425.178 335.879 424.769 337.091 424.739 338.455C424.678 339.576 424.875 340.591 425.33 341.5C425.814 342.379 426.572 343.182 427.602 343.909C428.633 344.606 429.951 345.242 431.557 345.818C433.163 346.394 435.072 346.909 437.284 347.364L444.92 349C450.072 350.091 454.481 351.53 458.148 353.318C461.814 355.106 464.814 357.212 467.148 359.636C469.481 362.03 471.193 364.727 472.284 367.727C473.405 370.727 473.981 374 474.011 377.545C473.981 383.667 472.451 388.848 469.42 393.091C466.39 397.333 462.057 400.561 456.42 402.773C450.814 404.985 444.072 406.091 436.193 406.091C428.102 406.091 421.042 404.894 415.011 402.5C409.011 400.106 404.345 396.424 401.011 391.455C397.708 386.455 396.042 380.061 396.011 372.273H420.011C420.163 375.121 420.875 377.515 422.148 379.455C423.42 381.394 425.208 382.864 427.511 383.864C429.845 384.864 432.617 385.364 435.83 385.364C438.527 385.364 440.784 385.03 442.602 384.364C444.42 383.697 445.799 382.773 446.739 381.591C447.678 380.409 448.163 379.061 448.193 377.545C448.163 376.121 447.693 374.879 446.784 373.818C445.905 372.727 444.451 371.758 442.42 370.909C440.39 370.03 437.648 369.212 434.193 368.455L424.92 366.455C416.678 364.667 410.178 361.682 405.42 357.5C400.693 353.288 398.345 347.545 398.375 340.273C398.345 334.364 399.92 329.197 403.102 324.773C406.314 320.318 410.754 316.848 416.42 314.364C422.117 311.879 428.648 310.636 436.011 310.636C443.527 310.636 450.027 311.894 455.511 314.409C460.996 316.924 465.223 320.47 468.193 325.045C471.193 329.591 472.708 334.909 472.739 341H448.557ZM28.1818 560H0.909091L31.6364 466.909H66.1818L96.9091 560H69.6364L49.2727 492.545H48.5455L28.1818 560ZM23.0909 523.273H74.3636V542.182H23.0909V523.273ZM105.875 560V466.909H131.148V539.636H168.784V560H105.875ZM265.557 513.455C265.557 523.818 263.542 532.561 259.511 539.682C255.481 546.773 250.042 552.152 243.193 555.818C236.345 559.455 228.708 561.273 220.284 561.273C211.799 561.273 204.133 559.439 197.284 555.773C190.466 552.076 185.042 546.682 181.011 539.591C177.011 532.47 175.011 523.758 175.011 513.455C175.011 503.091 177.011 494.364 181.011 487.273C185.042 480.152 190.466 474.773 197.284 471.136C204.133 467.47 211.799 465.636 220.284 465.636C228.708 465.636 236.345 467.47 243.193 471.136C250.042 474.773 255.481 480.152 259.511 487.273C263.542 494.364 265.557 503.091 265.557 513.455ZM239.557 513.455C239.557 507.879 238.814 503.182 237.33 499.364C235.875 495.515 233.708 492.606 230.83 490.636C227.981 488.636 224.466 487.636 220.284 487.636C216.102 487.636 212.572 488.636 209.693 490.636C206.845 492.606 204.678 495.515 203.193 499.364C201.739 503.182 201.011 507.879 201.011 513.455C201.011 519.03 201.739 523.742 203.193 527.591C204.678 531.409 206.845 534.318 209.693 536.318C212.572 538.288 216.102 539.273 220.284 539.273C224.466 539.273 227.981 538.288 230.83 536.318C233.708 534.318 235.875 531.409 237.33 527.591C238.814 523.742 239.557 519.03 239.557 513.455ZM357.795 466.909V560H336.705L303.068 511.091H302.523V560H277.25V466.909H298.705L331.795 515.636H332.523V466.909H357.795ZM369.75 560V466.909H436.841V487.273H395.023V503.273H433.386V523.636H395.023V539.636H436.659V560H369.75Z" fill="black"/>
</svg>
